<?xml version="1.0" encoding="iso-8859-1"?>
<!-- Generator: Adobe Illustrator 19.0.0, SVG Export Plug-In . SVG Version: 6.00 Build 0)  -->
<svg version="1.1" id="Layer_1" xmlns="http://www.w3.org/2000/svg" xmlns:xlink="http://www.w3.org/1999/xlink" x="0px" y="0px"
	 viewBox="0 0 512 512" style="enable-background:new 0 0 512 512;" xml:space="preserve">
<path style="fill:#2E2E30;" d="M214.244,502.05c-22.971-13.263-22.971-35.017,0-48.344s60.553-13.323,83.516,0.008
	c22.963,13.331,22.963,35.086,0,48.344C274.798,515.317,237.215,515.313,214.244,502.05z"/>
<path style="fill:#1D1D1F;" d="M272.159,424.573v-0.017h-0.003c-0.007-2.389-1.573-4.778-4.705-6.595
	c-6.284-3.648-16.581-3.655-22.882-0.018c-3.151,1.819-4.728,4.216-4.73,6.613l0,0v53.317l0,0c-0.002,2.396,1.569,4.791,4.715,6.607
	c6.292,3.633,16.59,3.64,22.882,0.018c3.157-1.817,4.729-4.22,4.722-6.624h0.001v-53.288
	C272.159,424.583,272.159,424.578,272.159,424.573z"/>
<path style="fill:#2E2E30;" d="M244.561,431.201c-6.292-3.633-6.292-9.593,0-13.244c6.292-3.651,16.589-3.65,22.879,0.002
	c6.29,3.652,6.29,9.612,0,13.244C261.149,434.835,250.854,434.834,244.561,431.201z"/>
<path style="fill:#898890;" d="M262.222,174.322v-0.006h-0.001c-0.003-0.919-0.606-1.84-1.812-2.54
	c-2.42-1.404-6.385-1.407-8.812-0.006c-1.213,0.7-1.82,1.624-1.821,2.546l0,0V425.36l0,0c-0.001,0.923,0.604,1.844,1.816,2.544
	c2.423,1.399,6.388,1.402,8.812,0.006c1.215-0.7,1.821-1.625,1.818-2.551l0,0V174.327
	C262.222,174.326,262.222,174.324,262.222,174.322z"/>
<path style="fill:#ACABB1;" d="M290.931,32.338L241.242,3.65c-6.595-3.808-12.324-4.526-16.487-2.669l-0.013-0.007l-0.145,0.091
	c-0.734,0.343-20.364,12.852-20.364,12.852c-4.631,2.589-7.043,8.671-6.017,17.551l13.568,117.503
	c1.958,16.954,15.652,37.808,30.432,46.341l8.314,4.8c8.278,4.779,16.288,4.725,22.132,0.785l18.942-12.057
	c4.988-2.987,8.564-8.634,9.61-16.478l12.491-93.75C315.96,61.695,305.71,40.871,290.931,32.338z"/>
<path style="fill:#C6C5CB;" d="M221.53,16.157c-14.78-8.534-25.272-1.644-23.313,15.311l13.568,117.503
	c1.958,16.954,15.652,37.808,30.432,46.341l8.314,4.8c14.78,8.534,28.718,1.674,30.971-15.244l12.491-93.75
	c2.254-16.918-7.994-37.74-22.775-46.274L221.53,16.157z"/>
<g style="enable-background:new    ;">
	<path style="fill:#FFFFFF;" d="M222.352,71.523l-5.53-5.911L217.118,65l5.522,5.907L222.352,71.523 M270.305,99.208l-0.292-0.951
		l5.545,0.483l0.292,0.951L270.305,99.208 M249.589,95.066l5.457-8.929l1.312,1.541l-5.196,8.515
		c11.097,8.195,24.719,23.242,24.695,31.811l-59.434-34.314c0.028-9.912,18.303-7.416,29.771-0.794
		C247.272,93.519,248.411,94.248,249.589,95.066 M226.452,67.709l-4.39-7.257l0.254-0.168l4.39,7.257L226.452,67.709 M266.239,90.68
		l-0.253-0.461l4.417-2.172l0.253,0.461L266.239,90.68 M232.043,66.13l-2.504-7.742l0.341,0.02l2.497,7.73L232.043,66.13
		 M260.676,82.661l-0.333-0.376l2.533-4.826l0.333,0.369L260.676,82.661 M238.332,67.773l-0.528-7.199l0.367,0.173l0.534,7.203
		L238.332,67.773 M254.397,77.047l-0.373-0.254l0.566-6.568l0.373,0.254L254.397,77.047 M245.991,72.057l0.02-6.915l0.741,0.427
		l-0.02,6.915L245.991,72.057 M273.811,76.155l-55.058-31.787c-4.023-2.323-7.15-0.074-6.676,4.792l4.345,44.531l59.434,34.314
		l4.582-39.377C280.938,84.324,277.834,78.478,273.811,76.155"/>
	<path d="M255.046,86.137l-5.457,8.929c0.517,0.358,1.042,0.736,1.573,1.127l5.196-8.515L255.046,86.137"/>
	<path style="fill:#8FCC05;" d="M246.193,92.896c-11.468-6.621-29.743-9.118-29.771,0.794l59.434,34.314
		c0.024-8.569-13.597-23.616-24.695-31.811c-0.531-0.392-1.055-0.768-1.573-1.127C248.411,94.248,247.272,93.519,246.193,92.896"/>
	<polyline points="246.752,65.569 246.011,65.142 245.991,72.057 246.732,72.484 246.752,65.569 	"/>
	<polyline points="262.875,77.459 260.343,82.284 260.676,82.661 263.209,77.828 262.875,77.459 	"/>
	<polyline points="254.591,70.225 254.023,76.793 254.397,77.047 254.964,70.479 254.591,70.225 	"/>
	<polyline points="270.403,88.047 265.987,90.219 266.239,90.68 270.656,88.507 270.403,88.047 	"/>
	<polyline points="275.558,98.74 270.013,98.256 270.305,99.208 275.85,99.691 275.558,98.74 	"/>
	<polyline points="229.879,58.409 229.538,58.388 232.043,66.13 232.377,66.139 229.879,58.409 	"/>
	<polyline points="238.172,60.747 237.806,60.573 238.332,67.773 238.706,67.95 238.172,60.747 	"/>
	<polyline points="222.317,60.284 222.062,60.452 226.452,67.709 226.707,67.541 222.317,60.284 	"/>
	<polyline points="217.118,65 216.822,65.612 222.352,71.523 222.641,70.906 217.118,65 	"/>
	<polyline style="fill:#77767E;" points="257.479,128.658 234.962,115.659 234.949,120.719 257.464,133.717 257.479,128.658 	"/>
	<path style="fill:#898890;" d="M246.038,147.668c-2.842-1.64-5.144-0.321-5.153,2.937c-0.009,3.258,2.278,7.227,5.12,8.868
		c2.835,1.637,5.144,0.321,5.153-2.937C251.167,153.279,248.873,149.305,246.038,147.668"/>
</g>
<g>
</g>
<g>
</g>
<g>
</g>
<g>
</g>
<g>
</g>
<g>
</g>
<g>
</g>
<g>
</g>
<g>
</g>
<g>
</g>
<g>
</g>
<g>
</g>
<g>
</g>
<g>
</g>
<g>
</g>
</svg>
